<svg width="70" height="30" viewBox="0 0 70 30" fill="none" xmlns="http://www.w3.org/2000/svg">
<rect opacity="0.06" width="70" height="30" rx="15" fill="#39CD62"/>
<path d="M14.4187 20L18.0167 10.76H19.3467L22.9307 20H21.7407L20.7607 17.438H16.5747L15.5947 20H14.4187ZM18.2407 13.07L16.9807 16.388H20.3547L19.1087 13.112L18.6747 11.824H18.6467L18.2407 13.07ZM27.3738 12.86C28.0925 12.86 28.6898 13.028 29.1658 13.364C29.6418 13.6907 30.0105 14.1433 30.2718 14.722L29.2078 15.226C29.0585 14.778 28.8298 14.4373 28.5218 14.204C28.2232 13.9613 27.8312 13.84 27.3458 13.84C26.6458 13.84 26.0952 14.078 25.6938 14.554C25.3018 15.0207 25.1058 15.6693 25.1058 16.5C25.1058 17.3307 25.3018 17.984 25.6938 18.46C26.0952 18.9267 26.6458 19.16 27.3458 19.16C27.8965 19.16 28.3352 19.034 28.6618 18.782C28.9885 18.53 29.2032 18.1753 29.3058 17.718L30.3418 18.082C30.1085 18.726 29.7398 19.23 29.2358 19.594C28.7412 19.958 28.1205 20.14 27.3738 20.14C26.7205 20.14 26.1372 19.9953 25.6238 19.706C25.1105 19.4167 24.7092 19.0013 24.4198 18.46C24.1305 17.9093 23.9858 17.256 23.9858 16.5C23.9858 15.744 24.1305 15.0953 24.4198 14.554C24.7092 14.0033 25.1105 13.5833 25.6238 13.294C26.1372 13.0047 26.7205 12.86 27.3738 12.86ZM36.5098 13V13.966H33.9618V18.068C33.9618 18.4133 34.0598 18.67 34.2558 18.838C34.4518 19.006 34.7038 19.09 35.0118 19.09C35.2825 19.09 35.5158 19.0433 35.7118 18.95C35.9078 18.8567 36.0851 18.7307 36.2438 18.572L36.6358 19.51C36.4211 19.706 36.1645 19.86 35.8658 19.972C35.5765 20.084 35.2405 20.14 34.8578 20.14C34.5031 20.14 34.1718 20.0793 33.8638 19.958C33.5558 19.8273 33.3085 19.6267 33.1218 19.356C32.9445 19.076 32.8511 18.712 32.8418 18.264V13.966H31.4418V13H32.8418V11.32L33.9618 11.012V13H36.5098ZM38.735 11.656C38.483 11.656 38.2777 11.5813 38.119 11.432C37.9697 11.2733 37.895 11.068 37.895 10.816C37.895 10.564 37.9697 10.3633 38.119 10.214C38.2777 10.0553 38.483 9.976 38.735 9.976C38.987 9.976 39.1877 10.0553 39.337 10.214C39.4957 10.3633 39.575 10.564 39.575 10.816C39.575 11.068 39.4957 11.2733 39.337 11.432C39.1877 11.5813 38.987 11.656 38.735 11.656ZM39.295 13V20H38.175V13H39.295ZM46.5278 13H47.7038L44.7918 20H43.6718L40.7598 13H42.0338L44.2458 18.866L46.5278 13ZM52.0932 20.14C51.4306 20.14 50.8379 19.9953 50.3152 19.706C49.8019 19.4167 49.4006 19.0013 49.1112 18.46C48.8219 17.9093 48.6772 17.256 48.6772 16.5C48.6772 15.744 48.8219 15.0953 49.1112 14.554C49.4006 14.0033 49.7972 13.5833 50.3012 13.294C50.8052 13.0047 51.3792 12.86 52.0232 12.86C52.6766 12.86 53.2319 13 53.6892 13.28C54.1559 13.56 54.5106 13.9427 54.7532 14.428C54.9959 14.904 55.1172 15.4407 55.1172 16.038C55.1172 16.1967 55.1126 16.3413 55.1032 16.472C55.0939 16.6027 55.0799 16.7193 55.0612 16.822H49.7832C49.8392 17.5593 50.0679 18.1333 50.4692 18.544C50.8706 18.9547 51.4026 19.16 52.0652 19.16C52.5786 19.16 52.9939 19.062 53.3112 18.866C53.6379 18.67 53.8992 18.404 54.0952 18.068L54.9772 18.586C54.7159 19.062 54.3379 19.44 53.8432 19.72C53.3579 20 52.7746 20.14 52.0932 20.14ZM51.9952 13.84C51.4072 13.84 50.9219 14.0173 50.5392 14.372C50.1659 14.7173 49.9279 15.2027 49.8252 15.828H53.9972C53.9692 15.1933 53.7732 14.7033 53.4092 14.358C53.0452 14.0127 52.5739 13.84 51.9952 13.84Z" fill="#39CD62"/>
</svg>
