<svg width="100" height="30" viewBox="0 0 100 30" fill="none" xmlns="http://www.w3.org/2000/svg">
<rect opacity="0.1" width="100" height="30" rx="15" fill="#E4033B"/>
<path d="M13.8938 20V10.76H17.1838C18.2758 10.76 19.0738 10.9887 19.5778 11.446C20.0818 11.9033 20.3338 12.524 20.3338 13.308C20.3338 13.7747 20.1985 14.1993 19.9278 14.582C19.6572 14.9553 19.2745 15.1933 18.7798 15.296V15.31C19.3305 15.4127 19.7645 15.6647 20.0818 16.066C20.4085 16.458 20.5718 16.906 20.5718 17.41C20.5718 18.194 20.2778 18.824 19.6898 19.3C19.1018 19.7667 18.2618 20 17.1698 20H13.8938ZM15.0138 14.82H17.1978C18.5045 14.82 19.1578 14.316 19.1578 13.308C19.1578 12.3093 18.5045 11.81 17.1978 11.81H15.0138V14.82ZM15.0138 18.95H17.4358C18.0985 18.95 18.5885 18.8147 18.9058 18.544C19.2325 18.2733 19.3958 17.8953 19.3958 17.41C19.3958 16.9153 19.2325 16.5373 18.9058 16.276C18.5885 16.0053 18.0985 15.87 17.4358 15.87H15.0138V18.95ZM23.8943 9.78V18.222C23.8943 18.5767 23.9597 18.824 24.0903 18.964C24.221 19.0947 24.431 19.16 24.7203 19.16C24.907 19.16 25.061 19.146 25.1823 19.118C25.3037 19.09 25.467 19.0387 25.6723 18.964L25.4903 19.944C25.1823 20.0747 24.837 20.14 24.4543 20.14C23.3343 20.14 22.7743 19.5147 22.7743 18.264V9.78H23.8943ZM31.1976 15.478C31.1976 14.9553 31.0576 14.554 30.7776 14.274C30.4976 13.9847 30.101 13.84 29.5876 13.84C29.1023 13.84 28.6916 13.9473 28.3556 14.162C28.0196 14.3673 27.7723 14.7033 27.6136 15.17L26.7036 14.61C26.8903 14.0873 27.2356 13.6673 27.7396 13.35C28.2436 13.0233 28.869 12.86 29.6156 12.86C30.1196 12.86 30.577 12.9487 30.9876 13.126C31.3983 13.294 31.7203 13.5553 31.9536 13.91C32.1963 14.2553 32.3176 14.7033 32.3176 15.254V18.642C32.3176 18.978 32.495 19.146 32.8496 19.146C33.027 19.146 33.1996 19.1227 33.3676 19.076L33.3116 19.958C33.125 20.0513 32.8823 20.098 32.5836 20.098C32.2383 20.098 31.9396 20.014 31.6876 19.846C31.445 19.678 31.2863 19.4213 31.2116 19.076C30.969 19.44 30.6376 19.7107 30.2176 19.888C29.7976 20.056 29.3823 20.14 28.9716 20.14C28.561 20.14 28.1783 20.07 27.8236 19.93C27.469 19.79 27.1843 19.58 26.9696 19.3C26.7643 19.0107 26.6616 18.656 26.6616 18.236C26.6616 17.7133 26.8343 17.284 27.1796 16.948C27.5343 16.6027 28.0243 16.3693 28.6496 16.248L31.1976 15.744V15.478ZM27.8096 18.18C27.8096 18.4693 27.9216 18.7073 28.1456 18.894C28.379 19.0713 28.7056 19.16 29.1256 19.16C29.4896 19.16 29.8256 19.0993 30.1336 18.978C30.451 18.8473 30.7076 18.656 30.9036 18.404C31.0996 18.1427 31.1976 17.8113 31.1976 17.41V16.668L29.1676 17.088C28.7103 17.1813 28.3696 17.312 28.1456 17.48C27.9216 17.648 27.8096 17.8813 27.8096 18.18ZM37.9373 12.86C38.656 12.86 39.2533 13.028 39.7293 13.364C40.2053 13.6907 40.574 14.1433 40.8353 14.722L39.7713 15.226C39.622 14.778 39.3933 14.4373 39.0853 14.204C38.7866 13.9613 38.3946 13.84 37.9093 13.84C37.2093 13.84 36.6586 14.078 36.2573 14.554C35.8653 15.0207 35.6693 15.6693 35.6693 16.5C35.6693 17.3307 35.8653 17.984 36.2573 18.46C36.6586 18.9267 37.2093 19.16 37.9093 19.16C38.46 19.16 38.8986 19.034 39.2253 18.782C39.552 18.53 39.7666 18.1753 39.8693 17.718L40.9053 18.082C40.672 18.726 40.3033 19.23 39.7993 19.594C39.3046 19.958 38.684 20.14 37.9373 20.14C37.284 20.14 36.7006 19.9953 36.1873 19.706C35.674 19.4167 35.2726 19.0013 34.9833 18.46C34.694 17.9093 34.5493 17.256 34.5493 16.5C34.5493 15.744 34.694 15.0953 34.9833 14.554C35.2726 14.0033 35.674 13.5833 36.1873 13.294C36.7006 13.0047 37.284 12.86 37.9373 12.86ZM49.0193 13L46.2893 15.73L49.1873 20H47.8293L45.4773 16.542L43.9933 18.026V20H42.8733V9.78H43.9933V16.626L47.6053 13H49.0193ZM51.8806 9.78V18.222C51.8806 18.5767 51.946 18.824 52.0766 18.964C52.2073 19.0947 52.4173 19.16 52.7066 19.16C52.8933 19.16 53.0473 19.146 53.1686 19.118C53.29 19.09 53.4533 19.0387 53.6586 18.964L53.4766 19.944C53.1686 20.0747 52.8233 20.14 52.4406 20.14C51.3206 20.14 50.7606 19.5147 50.7606 18.264V9.78H51.8806ZM55.6559 11.656C55.4039 11.656 55.1986 11.5813 55.0399 11.432C54.8906 11.2733 54.8159 11.068 54.8159 10.816C54.8159 10.564 54.8906 10.3633 55.0399 10.214C55.1986 10.0553 55.4039 9.976 55.6559 9.976C55.9079 9.976 56.1086 10.0553 56.2579 10.214C56.4166 10.3633 56.4959 10.564 56.4959 10.816C56.4959 11.068 56.4166 11.2733 56.2579 11.432C56.1086 11.5813 55.9079 11.656 55.6559 11.656ZM56.2159 13V20H55.0959V13H56.2159ZM61.3347 20.14C60.6534 20.14 60.0234 19.9953 59.4447 19.706C58.8754 19.4167 58.4367 19.006 58.1287 18.474L59.0807 17.788C59.286 18.2173 59.5847 18.5533 59.9767 18.796C60.378 19.0387 60.8587 19.16 61.4187 19.16C61.9134 19.16 62.3007 19.0667 62.5807 18.88C62.8607 18.684 63.0007 18.432 63.0007 18.124C63.0007 17.928 62.9354 17.7507 62.8047 17.592C62.6834 17.424 62.4454 17.3027 62.0907 17.228L60.4107 16.878C59.7294 16.738 59.2394 16.5047 58.9407 16.178C58.6514 15.8513 58.5067 15.4453 58.5067 14.96C58.5067 14.5773 58.614 14.2273 58.8287 13.91C59.0527 13.5927 59.3654 13.3407 59.7667 13.154C60.1774 12.958 60.658 12.86 61.2087 12.86C61.8994 12.86 62.4827 12.9953 62.9587 13.266C63.4347 13.5367 63.7894 13.9193 64.0227 14.414L63.0847 15.03C62.926 14.6193 62.6694 14.3207 62.3147 14.134C61.96 13.938 61.5914 13.84 61.2087 13.84C60.7047 13.84 60.3127 13.9427 60.0327 14.148C59.7527 14.3533 59.6127 14.61 59.6127 14.918C59.6127 15.1233 59.6827 15.3147 59.8227 15.492C59.9627 15.66 60.224 15.7813 60.6067 15.856L62.3567 16.22C63.01 16.3507 63.4674 16.5653 63.7287 16.864C63.99 17.1627 64.1207 17.5267 64.1207 17.956C64.1207 18.6187 63.864 19.1507 63.3507 19.552C62.8374 19.944 62.1654 20.14 61.3347 20.14ZM70.3975 13V13.966H67.8495V18.068C67.8495 18.4133 67.9475 18.67 68.1435 18.838C68.3395 19.006 68.5915 19.09 68.8995 19.09C69.1702 19.09 69.4035 19.0433 69.5995 18.95C69.7955 18.8567 69.9728 18.7307 70.1315 18.572L70.5235 19.51C70.3088 19.706 70.0522 19.86 69.7535 19.972C69.4642 20.084 69.1282 20.14 68.7455 20.14C68.3908 20.14 68.0595 20.0793 67.7515 19.958C67.4435 19.8273 67.1962 19.6267 67.0095 19.356C66.8322 19.076 66.7388 18.712 66.7295 18.264V13.966H65.3295V13H66.7295V11.32L67.8495 11.012V13H70.3975ZM74.9887 20.14C74.3261 20.14 73.7334 19.9953 73.2107 19.706C72.6974 19.4167 72.2961 19.0013 72.0067 18.46C71.7174 17.9093 71.5727 17.256 71.5727 16.5C71.5727 15.744 71.7174 15.0953 72.0067 14.554C72.2961 14.0033 72.6927 13.5833 73.1967 13.294C73.7007 13.0047 74.2747 12.86 74.9187 12.86C75.5721 12.86 76.1274 13 76.5847 13.28C77.0514 13.56 77.4061 13.9427 77.6487 14.428C77.8914 14.904 78.0127 15.4407 78.0127 16.038C78.0127 16.1967 78.0081 16.3413 77.9987 16.472C77.9894 16.6027 77.9754 16.7193 77.9567 16.822H72.6787C72.7347 17.5593 72.9634 18.1333 73.3647 18.544C73.7661 18.9547 74.2981 19.16 74.9607 19.16C75.4741 19.16 75.8894 19.062 76.2067 18.866C76.5334 18.67 76.7947 18.404 76.9907 18.068L77.8727 18.586C77.6114 19.062 77.2334 19.44 76.7387 19.72C76.2534 20 75.6701 20.14 74.9887 20.14ZM74.8907 13.84C74.3027 13.84 73.8174 14.0173 73.4347 14.372C73.0614 14.7173 72.8234 15.2027 72.7207 15.828H76.8927C76.8647 15.1933 76.6687 14.7033 76.3047 14.358C75.9407 14.0127 75.4694 13.84 74.8907 13.84ZM82.8728 20.14C82.2942 20.14 81.7622 19.9953 81.2768 19.706C80.7915 19.4167 80.4042 19.0013 80.1148 18.46C79.8255 17.9093 79.6808 17.256 79.6808 16.5C79.6808 15.7253 79.8348 15.0673 80.1428 14.526C80.4508 13.9847 80.8568 13.574 81.3608 13.294C81.8648 13.0047 82.4062 12.86 82.9848 12.86C83.4888 12.86 83.9368 12.9767 84.3288 13.21C84.7208 13.434 85.0102 13.742 85.1968 14.134V9.78H86.3168V20H85.3368L85.2668 18.684C85.0708 19.16 84.7535 19.524 84.3148 19.776C83.8762 20.0187 83.3955 20.14 82.8728 20.14ZM82.9848 19.16C83.6475 19.16 84.1795 18.9127 84.5808 18.418C84.9915 17.9233 85.1968 17.2513 85.1968 16.402C85.1968 15.5993 84.9962 14.974 84.5948 14.526C84.1935 14.0687 83.6755 13.84 83.0408 13.84C82.3315 13.84 81.7808 14.0827 81.3888 14.568C80.9968 15.0533 80.8008 15.6973 80.8008 16.5C80.8008 17.3027 80.9922 17.9467 81.3748 18.432C81.7575 18.9173 82.2942 19.16 82.9848 19.16Z" fill="#E4033B"/>
</svg>
