<svg width="19" height="13" viewBox="0 0 19 13" fill="none" xmlns="http://www.w3.org/2000/svg">
<path d="M15.4137 2.79703L14.0006 1.3839C13.6879 1.07391 13.2653 0.89999 12.825 0.899994H6.09187C5.6525 0.899994 5.22797 1.07515 4.91625 1.3839L3.50312 2.79703H0V10.3881H1.9C2.4225 10.3881 2.84406 9.96656 2.84703 9.44703H3.11719L5.62875 11.7151C6.54609 12.4603 7.81969 12.4781 8.76375 11.828C9.13484 12.1486 9.53562 12.3 9.98391 12.3C10.5242 12.3 11.0319 12.0803 11.4327 11.5875C12.0887 11.8458 12.8636 11.6647 13.3327 11.0887L14.1105 10.1298C14.2767 9.92499 14.3806 9.69046 14.4341 9.44703H16.153C16.1559 9.96656 16.5805 10.3881 17.1 10.3881H19V2.79703H15.4137ZM1.425 9.43812C1.16375 9.43812 0.95 9.22437 0.95 8.96312C0.95 8.70187 1.16375 8.48812 1.425 8.48812C1.68625 8.48812 1.9 8.70187 1.9 8.96312C1.9 9.22734 1.68625 9.43812 1.425 9.43812ZM13.0031 9.23328L12.2283 10.1892C12.1452 10.2902 11.9967 10.308 11.8928 10.2248L11.1833 9.6489L10.2927 10.7325C10.1145 10.9492 9.84734 10.875 9.75828 10.8037L8.66578 9.86859L8.20266 10.4386C7.79 10.9462 7.03891 11.0234 6.56094 10.6345L3.67234 8.02203H2.85V4.21906H4.09391L5.92563 2.39031C5.985 2.36656 6.03547 2.34578 6.09484 2.32203H7.77812L6.62922 3.37593C5.75641 4.17453 5.70594 5.52234 6.49859 6.38328C6.93797 6.86421 8.31547 7.6064 9.51188 6.5139L9.75531 6.29124L12.9675 8.89781C13.0684 8.98093 13.0833 9.13234 13.0031 9.23328ZM16.15 8.02203H14.0956C14.0273 7.9389 13.9502 7.86171 13.867 7.79343L10.8181 5.31749L11.1892 4.97906C11.3822 4.80093 11.397 4.50109 11.2189 4.30812L10.8953 3.96078C10.7172 3.76781 10.4173 3.75593 10.2244 3.93109L8.58563 5.43328C8.30359 5.69156 7.82266 5.71234 7.55844 5.43328C7.28234 5.13937 7.30609 4.68812 7.59406 4.42687L9.54156 2.64265C9.76125 2.44078 10.0462 2.33093 10.3431 2.33093L12.828 2.32499C12.8903 2.32499 12.9497 2.34874 12.9913 2.39328L14.823 4.22203H16.15V8.02203ZM17.575 9.43812C17.3137 9.43812 17.1 9.22437 17.1 8.96312C17.1 8.70187 17.3137 8.48812 17.575 8.48812C17.8363 8.48812 18.05 8.70187 18.05 8.96312C18.05 9.22734 17.8363 9.43812 17.575 9.43812Z" fill="#213F7D"/>
</svg>
