<svg width="80" height="30" viewBox="0 0 80 30" fill="none" xmlns="http://www.w3.org/2000/svg">
<rect opacity="0.06" width="80" height="30" rx="15" fill="#545F7D"/>
<path d="M15.9103 10.76V20H14.7903V10.76H15.9103ZM18.6545 20V13H19.6345L19.7045 14.092C19.9472 13.6533 20.2785 13.3407 20.6985 13.154C21.1185 12.958 21.5712 12.86 22.0565 12.86C22.5605 12.86 23.0179 12.958 23.4285 13.154C23.8392 13.3407 24.1659 13.63 24.4085 14.022C24.6605 14.414 24.7865 14.9133 24.7865 15.52V20H23.6665V15.912C23.6665 15.1373 23.4985 14.6007 23.1625 14.302C22.8359 13.994 22.4299 13.84 21.9445 13.84C21.6085 13.84 21.2725 13.9193 20.9365 14.078C20.6005 14.2367 20.3205 14.4933 20.0965 14.848C19.8819 15.2027 19.7745 15.6787 19.7745 16.276V20H18.6545ZM31.4105 15.478C31.4105 14.9553 31.2705 14.554 30.9905 14.274C30.7105 13.9847 30.3138 13.84 29.8005 13.84C29.3152 13.84 28.9045 13.9473 28.5685 14.162C28.2325 14.3673 27.9852 14.7033 27.8265 15.17L26.9165 14.61C27.1032 14.0873 27.4485 13.6673 27.9525 13.35C28.4565 13.0233 29.0818 12.86 29.8285 12.86C30.3325 12.86 30.7898 12.9487 31.2005 13.126C31.6112 13.294 31.9332 13.5553 32.1665 13.91C32.4092 14.2553 32.5305 14.7033 32.5305 15.254V18.642C32.5305 18.978 32.7078 19.146 33.0625 19.146C33.2398 19.146 33.4125 19.1227 33.5805 19.076L33.5245 19.958C33.3378 20.0513 33.0952 20.098 32.7965 20.098C32.4512 20.098 32.1525 20.014 31.9005 19.846C31.6578 19.678 31.4992 19.4213 31.4245 19.076C31.1818 19.44 30.8505 19.7107 30.4305 19.888C30.0105 20.056 29.5952 20.14 29.1845 20.14C28.7738 20.14 28.3912 20.07 28.0365 19.93C27.6818 19.79 27.3972 19.58 27.1825 19.3C26.9772 19.0107 26.8745 18.656 26.8745 18.236C26.8745 17.7133 27.0472 17.284 27.3925 16.948C27.7472 16.6027 28.2372 16.3693 28.8625 16.248L31.4105 15.744V15.478ZM28.0225 18.18C28.0225 18.4693 28.1345 18.7073 28.3585 18.894C28.5918 19.0713 28.9185 19.16 29.3385 19.16C29.7025 19.16 30.0385 19.0993 30.3465 18.978C30.6638 18.8473 30.9205 18.656 31.1165 18.404C31.3125 18.1427 31.4105 17.8113 31.4105 17.41V16.668L29.3805 17.088C28.9232 17.1813 28.5825 17.312 28.3585 17.48C28.1345 17.648 28.0225 17.8813 28.0225 18.18ZM38.1502 12.86C38.8689 12.86 39.4662 13.028 39.9422 13.364C40.4182 13.6907 40.7869 14.1433 41.0482 14.722L39.9842 15.226C39.8349 14.778 39.6062 14.4373 39.2982 14.204C38.9995 13.9613 38.6075 13.84 38.1222 13.84C37.4222 13.84 36.8715 14.078 36.4702 14.554C36.0782 15.0207 35.8822 15.6693 35.8822 16.5C35.8822 17.3307 36.0782 17.984 36.4702 18.46C36.8715 18.9267 37.4222 19.16 38.1222 19.16C38.6729 19.16 39.1115 19.034 39.4382 18.782C39.7649 18.53 39.9795 18.1753 40.0822 17.718L41.1182 18.082C40.8849 18.726 40.5162 19.23 40.0122 19.594C39.5175 19.958 38.8969 20.14 38.1502 20.14C37.4969 20.14 36.9135 19.9953 36.4002 19.706C35.8869 19.4167 35.4855 19.0013 35.1962 18.46C34.9069 17.9093 34.7622 17.256 34.7622 16.5C34.7622 15.744 34.9069 15.0953 35.1962 14.554C35.4855 14.0033 35.8869 13.5833 36.4002 13.294C36.9135 13.0047 37.4969 12.86 38.1502 12.86ZM47.2862 13V13.966H44.7382V18.068C44.7382 18.4133 44.8362 18.67 45.0322 18.838C45.2282 19.006 45.4802 19.09 45.7882 19.09C46.0588 19.09 46.2922 19.0433 46.4882 18.95C46.6842 18.8567 46.8615 18.7307 47.0202 18.572L47.4122 19.51C47.1975 19.706 46.9408 19.86 46.6422 19.972C46.3528 20.084 46.0168 20.14 45.6342 20.14C45.2795 20.14 44.9482 20.0793 44.6402 19.958C44.3322 19.8273 44.0848 19.6267 43.8982 19.356C43.7208 19.076 43.6275 18.712 43.6182 18.264V13.966H42.2182V13H43.6182V11.32L44.7382 11.012V13H47.2862ZM49.5114 11.656C49.2594 11.656 49.0541 11.5813 48.8954 11.432C48.7461 11.2733 48.6714 11.068 48.6714 10.816C48.6714 10.564 48.7461 10.3633 48.8954 10.214C49.0541 10.0553 49.2594 9.976 49.5114 9.976C49.7634 9.976 49.9641 10.0553 50.1134 10.214C50.2721 10.3633 50.3514 10.564 50.3514 10.816C50.3514 11.068 50.2721 11.2733 50.1134 11.432C49.9641 11.5813 49.7634 11.656 49.5114 11.656ZM50.0714 13V20H48.9514V13H50.0714ZM57.3042 13H58.4802L55.5682 20H54.4482L51.5362 13H52.8102L55.0222 18.866L57.3042 13ZM62.8696 20.14C62.2069 20.14 61.6143 19.9953 61.0916 19.706C60.5783 19.4167 60.1769 19.0013 59.8876 18.46C59.5983 17.9093 59.4536 17.256 59.4536 16.5C59.4536 15.744 59.5983 15.0953 59.8876 14.554C60.1769 14.0033 60.5736 13.5833 61.0776 13.294C61.5816 13.0047 62.1556 12.86 62.7996 12.86C63.4529 12.86 64.0083 13 64.4656 13.28C64.9323 13.56 65.2869 13.9427 65.5296 14.428C65.7723 14.904 65.8936 15.4407 65.8936 16.038C65.8936 16.1967 65.8889 16.3413 65.8796 16.472C65.8703 16.6027 65.8563 16.7193 65.8376 16.822H60.5596C60.6156 17.5593 60.8443 18.1333 61.2456 18.544C61.6469 18.9547 62.1789 19.16 62.8416 19.16C63.3549 19.16 63.7703 19.062 64.0876 18.866C64.4143 18.67 64.6756 18.404 64.8716 18.068L65.7536 18.586C65.4923 19.062 65.1143 19.44 64.6196 19.72C64.1343 20 63.5509 20.14 62.8696 20.14ZM62.7716 13.84C62.1836 13.84 61.6983 14.0173 61.3156 14.372C60.9423 14.7173 60.7043 15.2027 60.6016 15.828H64.7736C64.7456 15.1933 64.5496 14.7033 64.1856 14.358C63.8216 14.0127 63.3503 13.84 62.7716 13.84Z" fill="#545F7D"/>
</svg>
