<svg width="90" height="30" viewBox="0 0 90 30" fill="none" xmlns="http://www.w3.org/2000/svg">
<rect opacity="0.1" width="90" height="30" rx="15" fill="#E9B200"/>
<path d="M22.774 10.76C23.3993 10.76 23.9407 10.8767 24.398 11.11C24.8647 11.334 25.2287 11.656 25.49 12.076C25.7513 12.496 25.882 12.9953 25.882 13.574C25.882 14.1527 25.7513 14.652 25.49 15.072C25.2287 15.492 24.8647 15.8187 24.398 16.052C23.9407 16.276 23.3993 16.388 22.774 16.388H20.632V20H19.512V10.76H22.774ZM22.606 15.338C23.334 15.338 23.866 15.1887 24.202 14.89C24.538 14.582 24.706 14.1433 24.706 13.574C24.706 12.9953 24.538 12.5567 24.202 12.258C23.866 11.9593 23.334 11.81 22.606 11.81H20.632V15.338H22.606ZM30.6499 20.14C29.9872 20.14 29.3945 19.9953 28.8719 19.706C28.3585 19.4167 27.9572 19.0013 27.6679 18.46C27.3785 17.9093 27.2339 17.256 27.2339 16.5C27.2339 15.744 27.3785 15.0953 27.6679 14.554C27.9572 14.0033 28.3539 13.5833 28.8579 13.294C29.3619 13.0047 29.9359 12.86 30.5799 12.86C31.2332 12.86 31.7885 13 32.2459 13.28C32.7125 13.56 33.0672 13.9427 33.3099 14.428C33.5525 14.904 33.6739 15.4407 33.6739 16.038C33.6739 16.1967 33.6692 16.3413 33.6599 16.472C33.6505 16.6027 33.6365 16.7193 33.6179 16.822H28.3399C28.3959 17.5593 28.6245 18.1333 29.0259 18.544C29.4272 18.9547 29.9592 19.16 30.6219 19.16C31.1352 19.16 31.5505 19.062 31.8679 18.866C32.1945 18.67 32.4559 18.404 32.6519 18.068L33.5339 18.586C33.2725 19.062 32.8945 19.44 32.3999 19.72C31.9145 20 31.3312 20.14 30.6499 20.14ZM30.5519 13.84C29.9639 13.84 29.4785 14.0173 29.0959 14.372C28.7225 14.7173 28.4845 15.2027 28.3819 15.828H32.5539C32.5259 15.1933 32.3299 14.7033 31.9659 14.358C31.6019 14.0127 31.1305 13.84 30.5519 13.84ZM35.804 20V13H36.784L36.854 14.092C37.0966 13.6533 37.428 13.3407 37.848 13.154C38.268 12.958 38.7206 12.86 39.206 12.86C39.71 12.86 40.1673 12.958 40.578 13.154C40.9886 13.3407 41.3153 13.63 41.558 14.022C41.81 14.414 41.936 14.9133 41.936 15.52V20H40.816V15.912C40.816 15.1373 40.648 14.6007 40.312 14.302C39.9853 13.994 39.5793 13.84 39.094 13.84C38.758 13.84 38.422 13.9193 38.086 14.078C37.75 14.2367 37.47 14.4933 37.246 14.848C37.0313 15.2027 36.924 15.6787 36.924 16.276V20H35.804ZM47.2019 20.14C46.6233 20.14 46.0913 19.9953 45.6059 19.706C45.1206 19.4167 44.7333 19.0013 44.4439 18.46C44.1546 17.9093 44.0099 17.256 44.0099 16.5C44.0099 15.7253 44.1639 15.0673 44.4719 14.526C44.7799 13.9847 45.1859 13.574 45.6899 13.294C46.1939 13.0047 46.7353 12.86 47.3139 12.86C47.8179 12.86 48.2659 12.9767 48.6579 13.21C49.0499 13.434 49.3393 13.742 49.5259 14.134V9.78H50.6459V20H49.6659L49.5959 18.684C49.3999 19.16 49.0826 19.524 48.6439 19.776C48.2053 20.0187 47.7246 20.14 47.2019 20.14ZM47.3139 19.16C47.9766 19.16 48.5086 18.9127 48.9099 18.418C49.3206 17.9233 49.5259 17.2513 49.5259 16.402C49.5259 15.5993 49.3253 14.974 48.9239 14.526C48.5226 14.0687 48.0046 13.84 47.3699 13.84C46.6606 13.84 46.1099 14.0827 45.7179 14.568C45.3259 15.0533 45.1299 15.6973 45.1299 16.5C45.1299 17.3027 45.3213 17.9467 45.7039 18.432C46.0866 18.9173 46.6233 19.16 47.3139 19.16ZM53.8093 11.656C53.5573 11.656 53.3519 11.5813 53.1933 11.432C53.0439 11.2733 52.9693 11.068 52.9693 10.816C52.9693 10.564 53.0439 10.3633 53.1933 10.214C53.3519 10.0553 53.5573 9.976 53.8093 9.976C54.0613 9.976 54.2619 10.0553 54.4113 10.214C54.5699 10.3633 54.6493 10.564 54.6493 10.816C54.6493 11.068 54.5699 11.2733 54.4113 11.432C54.2619 11.5813 54.0613 11.656 53.8093 11.656ZM54.3693 13V20H53.2493V13H54.3693ZM56.968 20V13H57.948L58.018 14.092C58.2607 13.6533 58.592 13.3407 59.012 13.154C59.432 12.958 59.8847 12.86 60.37 12.86C60.874 12.86 61.3313 12.958 61.742 13.154C62.1527 13.3407 62.4793 13.63 62.722 14.022C62.974 14.414 63.1 14.9133 63.1 15.52V20H61.98V15.912C61.98 15.1373 61.812 14.6007 61.476 14.302C61.1493 13.994 60.7433 13.84 60.258 13.84C59.922 13.84 59.586 13.9193 59.25 14.078C58.914 14.2367 58.634 14.4933 58.41 14.848C58.1953 15.2027 58.088 15.6787 58.088 16.276V20H56.968ZM69.402 19.104C70.0647 19.104 70.5827 19.258 70.956 19.566C71.3293 19.8647 71.516 20.266 71.516 20.77C71.516 21.2273 71.362 21.624 71.054 21.96C70.7553 22.296 70.3493 22.5527 69.836 22.73C69.332 22.9167 68.7627 23.01 68.128 23.01C67.0267 23.01 66.2007 22.8233 65.65 22.45C65.1087 22.0767 64.838 21.6287 64.838 21.106C64.838 20.7887 64.9267 20.4993 65.104 20.238C65.2813 19.9767 65.5753 19.79 65.986 19.678C65.762 19.5753 65.58 19.4353 65.44 19.258C65.3 19.0713 65.23 18.824 65.23 18.516C65.23 18.2267 65.314 17.9653 65.482 17.732C65.65 17.4893 65.902 17.3027 66.238 17.172C65.8833 16.9667 65.6127 16.696 65.426 16.36C65.2393 16.024 65.146 15.646 65.146 15.226C65.146 14.7593 65.2673 14.3487 65.51 13.994C65.762 13.6393 66.1027 13.364 66.532 13.168C66.9613 12.9627 67.456 12.86 68.016 12.86C68.604 12.86 69.1313 12.9767 69.598 13.21C69.6633 12.7433 69.8687 12.3793 70.214 12.118C70.5687 11.8473 70.984 11.712 71.46 11.712H71.53L71.782 12.706H71.684C71.2547 12.706 70.9187 12.7853 70.676 12.944C70.4333 13.1027 70.298 13.35 70.27 13.686C70.6807 14.1153 70.886 14.6287 70.886 15.226C70.886 15.6833 70.7647 16.094 70.522 16.458C70.2793 16.8127 69.9387 17.0927 69.5 17.298C69.0707 17.494 68.576 17.592 68.016 17.592C67.6707 17.592 67.3487 17.5593 67.05 17.494C66.77 17.578 66.5693 17.6947 66.448 17.844C66.3267 17.9933 66.266 18.1567 66.266 18.334C66.266 18.8473 66.63 19.104 67.358 19.104H69.402ZM68.016 13.77C67.5307 13.77 67.1247 13.9053 66.798 14.176C66.4713 14.4373 66.308 14.7873 66.308 15.226C66.308 15.6553 66.4713 16.0053 66.798 16.276C67.1247 16.5467 67.5307 16.682 68.016 16.682C68.5013 16.682 68.9073 16.5467 69.234 16.276C69.5607 16.0053 69.724 15.6553 69.724 15.226C69.724 14.7873 69.5607 14.4373 69.234 14.176C68.9073 13.9053 68.5013 13.77 68.016 13.77ZM68.114 22.072C68.926 22.072 69.5233 21.9507 69.906 21.708C70.2887 21.4747 70.48 21.204 70.48 20.896C70.48 20.644 70.3773 20.4433 70.172 20.294C69.976 20.1447 69.6167 20.07 69.094 20.07H66.938C66.6393 20.07 66.3873 20.1447 66.182 20.294C65.9767 20.4527 65.874 20.6673 65.874 20.938C65.874 21.2833 66.07 21.5587 66.462 21.764C66.8633 21.9693 67.414 22.072 68.114 22.072Z" fill="#E9B200"/>
</svg>
