<svg width="19" height="13" viewBox="0 0 19 13" fill="none" xmlns="http://www.w3.org/2000/svg">
<path d="M15.4137 2.79693L14.0006 1.38381C13.6879 1.07382 13.2653 0.899899 12.825 0.899902H6.09187C5.6525 0.899902 5.22797 1.07506 4.91625 1.38381L3.50312 2.79693H0V10.388H1.9C2.4225 10.388 2.84406 9.96646 2.84703 9.44693H3.11719L5.62875 11.7151C6.54609 12.4602 7.81969 12.478 8.76375 11.8279C9.13484 12.1485 9.53562 12.2999 9.98391 12.2999C10.5242 12.2999 11.0319 12.0802 11.4327 11.5874C12.0887 11.8457 12.8636 11.6646 13.3327 11.0887L14.1105 10.1297C14.2767 9.9249 14.3806 9.69037 14.4341 9.44693H16.153C16.1559 9.96646 16.5805 10.388 17.1 10.388H19V2.79693H15.4137ZM1.425 9.43803C1.16375 9.43803 0.95 9.22428 0.95 8.96303C0.95 8.70178 1.16375 8.48803 1.425 8.48803C1.68625 8.48803 1.9 8.70178 1.9 8.96303C1.9 9.22725 1.68625 9.43803 1.425 9.43803ZM13.0031 9.23318L12.2283 10.1891C12.1452 10.2901 11.9967 10.3079 11.8928 10.2247L11.1833 9.64881L10.2927 10.7324C10.1145 10.9491 9.84734 10.8749 9.75828 10.8037L8.66578 9.8685L8.20266 10.4385C7.79 10.9462 7.03891 11.0233 6.56094 10.6344L3.67234 8.02193H2.85V4.21897H4.09391L5.92563 2.39021C5.985 2.36646 6.03547 2.34568 6.09484 2.32193H7.77812L6.62922 3.37584C5.75641 4.17443 5.70594 5.52225 6.49859 6.38318C6.93797 6.86412 8.31547 7.60631 9.51188 6.51381L9.75531 6.29115L12.9675 8.89772C13.0684 8.98084 13.0833 9.13225 13.0031 9.23318ZM16.15 8.02193H14.0956C14.0273 7.93881 13.9502 7.86162 13.867 7.79334L10.8181 5.3174L11.1892 4.97896C11.3822 4.80084 11.397 4.501 11.2189 4.30803L10.8953 3.96068C10.7172 3.76772 10.4173 3.75584 10.2244 3.931L8.58563 5.43318C8.30359 5.69146 7.82266 5.71225 7.55844 5.43318C7.28234 5.13928 7.30609 4.68803 7.59406 4.42678L9.54156 2.64256C9.76125 2.44068 10.0462 2.33084 10.3431 2.33084L12.828 2.3249C12.8903 2.3249 12.9497 2.34865 12.9913 2.39318L14.823 4.22193H16.15V8.02193ZM17.575 9.43803C17.3137 9.43803 17.1 9.22428 17.1 8.96303C17.1 8.70178 17.3137 8.48803 17.575 8.48803C17.8363 8.48803 18.05 8.70178 18.05 8.96303C18.05 9.22725 17.8363 9.43803 17.575 9.43803Z" fill="#7a8cb1"/>
</svg>
