<svg width="16" height="13" viewBox="0 0 16 13" fill="none" xmlns="http://www.w3.org/2000/svg">
<path opacity="0.4" d="M2.4 5.5999C2.71645 5.5999 3.02579 5.50606 3.28891 5.33025C3.55203 5.15444 3.75711 4.90456 3.87821 4.6122C3.99931 4.31984 4.03099 3.99813 3.96926 3.68776C3.90752 3.37739 3.75514 3.0923 3.53137 2.86853C3.30761 2.64477 3.02251 2.49238 2.71214 2.43065C2.40177 2.36891 2.08007 2.4006 1.78771 2.5217C1.49534 2.6428 1.24546 2.84787 1.06965 3.11099C0.893838 3.37411 0.8 3.68345 0.8 3.9999C0.800397 4.42413 0.969096 4.83086 1.26907 5.13084C1.56904 5.43081 1.97578 5.59951 2.4 5.5999ZM14.4 6.3999H12.8C12.3774 6.39945 11.9719 6.56668 11.6725 6.8649C12.1789 7.1405 12.613 7.53193 12.9392 8.00725C13.2655 8.48256 13.4748 9.02829 13.55 9.5999H15.2C15.4122 9.5999 15.6157 9.51562 15.7657 9.36559C15.9157 9.21556 16 9.01208 16 8.7999V7.9999C15.9996 7.57568 15.8309 7.16894 15.5309 6.86897C15.231 6.569 14.8242 6.4003 14.4 6.3999ZM1.6 6.3999C1.17578 6.4003 0.76904 6.569 0.469068 6.86897C0.169096 7.16894 0.000397152 7.57568 0 7.9999V8.7999C0 9.01208 0.0842855 9.21556 0.234315 9.36559C0.384344 9.51562 0.587827 9.5999 0.8 9.5999H2.4475C2.52367 9.02829 2.73362 8.4827 3.06028 8.00748C3.38694 7.53225 3.82111 7.14079 4.3275 6.8649C4.02809 6.56668 3.62259 6.39945 3.2 6.3999H1.6ZM13.6 5.5999C13.9165 5.5999 14.2258 5.50606 14.4889 5.33025C14.752 5.15444 14.9571 4.90456 15.0782 4.6122C15.1993 4.31984 15.231 3.99813 15.1693 3.68776C15.1075 3.37739 14.9551 3.0923 14.7314 2.86853C14.5076 2.64477 14.2225 2.49238 13.9121 2.43065C13.6018 2.36891 13.2801 2.4006 12.9877 2.5217C12.6953 2.6428 12.4455 2.84787 12.2696 3.11099C12.0938 3.37411 12 3.68345 12 3.9999C12.0004 4.42413 12.1691 4.83086 12.4691 5.13084C12.769 5.43081 13.1758 5.59951 13.6 5.5999Z" fill="#7a8cb1"/>
<path d="M9.91995 7.19981H9.71245C9.17907 7.46052 8.59364 7.59726 7.99995 7.59981C7.38495 7.59981 6.80995 7.44981 6.28745 7.19981H6.07995C5.31619 7.20001 4.58376 7.5035 4.0437 8.04356C3.50364 8.58362 3.20015 9.31604 3.19995 10.0798V10.7998C3.19995 11.1181 3.32638 11.4233 3.55142 11.6483C3.77647 11.8734 4.08169 11.9998 4.39995 11.9998H11.6C11.9182 11.9998 12.2234 11.8734 12.4485 11.6483C12.6735 11.4233 12.8 11.1181 12.8 10.7998V10.0798C12.7998 9.31604 12.4963 8.58362 11.9562 8.04356C11.4161 7.5035 10.6837 7.20001 9.91995 7.19981ZM7.99995 6.39981C8.55374 6.39981 9.09509 6.23559 9.55555 5.92792C10.016 5.62025 10.3749 5.18295 10.5868 4.67132C10.7987 4.15969 10.8542 3.5967 10.7462 3.05355C10.6381 2.51041 10.3714 2.01149 9.97985 1.61991C9.58826 1.22832 9.08935 0.961646 8.5462 0.853607C8.00306 0.745569 7.44007 0.801018 6.92844 1.01294C6.4168 1.22487 5.9795 1.58375 5.67184 2.04421C5.36417 2.50467 5.19995 3.04602 5.19995 3.59981C5.19975 3.96756 5.27204 4.33175 5.41269 4.67155C5.55333 5.01135 5.75957 5.3201 6.01961 5.58014C6.27966 5.84019 6.5884 6.04643 6.9282 6.18707C7.268 6.32771 7.63219 6.4 7.99995 6.39981Z" fill="#7a8cb1"/>
</svg>
