<svg width="16" height="13" viewBox="0 0 16 13" fill="none" xmlns="http://www.w3.org/2000/svg">
<g clip-path="url(#clip0_181_478)">
<path opacity="0.4" d="M15.88 4.86023L14.74 6.00023L15.88 7.14023C15.9175 7.17763 15.9472 7.22206 15.9674 7.27096C15.9877 7.31987 15.9982 7.37229 15.9982 7.42523C15.9982 7.47817 15.9877 7.53059 15.9674 7.57949C15.9472 7.6284 15.9175 7.67282 15.88 7.71023L15.31 8.28023C15.2726 8.31769 15.2282 8.34741 15.1792 8.36769C15.1303 8.38797 15.0779 8.3984 15.025 8.3984C14.972 8.3984 14.9196 8.38797 14.8707 8.36769C14.8218 8.34741 14.7774 8.31769 14.74 8.28023L13.6 7.14023L12.46 8.28023C12.4226 8.31769 12.3781 8.34741 12.3292 8.36769C12.2803 8.38797 12.2279 8.3984 12.175 8.3984C12.122 8.3984 12.0696 8.38797 12.0207 8.36769C11.9718 8.34741 11.9274 8.31769 11.89 8.28023L11.32 7.71023C11.2825 7.67282 11.2528 7.6284 11.2325 7.57949C11.2122 7.53059 11.2018 7.47817 11.2018 7.42523C11.2018 7.37229 11.2122 7.31987 11.2325 7.27096C11.2528 7.22206 11.2825 7.17763 11.32 7.14023L12.46 6.00023L11.32 4.86023C11.2825 4.82282 11.2528 4.77839 11.2325 4.72949C11.2122 4.68059 11.2018 4.62817 11.2018 4.57523C11.2018 4.52229 11.2122 4.46986 11.2325 4.42096C11.2528 4.37206 11.2825 4.32763 11.32 4.29023L11.89 3.72023C11.9274 3.68276 11.9718 3.65304 12.0207 3.63277C12.0696 3.61249 12.122 3.60205 12.175 3.60205C12.2279 3.60205 12.2803 3.61249 12.3292 3.63277C12.3781 3.65304 12.4226 3.68276 12.46 3.72023L13.6 4.86023L14.74 3.72023C14.7774 3.68276 14.8218 3.65304 14.8707 3.63277C14.9196 3.61249 14.972 3.60205 15.025 3.60205C15.0779 3.60205 15.1303 3.61249 15.1792 3.63277C15.2282 3.65304 15.2726 3.68276 15.31 3.72023L15.88 4.29023C15.9175 4.32763 15.9472 4.37206 15.9674 4.42096C15.9877 4.46986 15.9982 4.52229 15.9982 4.57523C15.9982 4.62817 15.9877 4.68059 15.9674 4.72949C15.9472 4.77839 15.9175 4.82282 15.88 4.86023Z" fill="#798cb1"/>
<path d="M7.84 7.2H7.4225C6.85106 7.46352 6.22927 7.59999 5.6 7.59999C4.97073 7.59999 4.34894 7.46352 3.7775 7.2H3.36C2.46893 7.2002 1.61442 7.55426 0.984341 8.18434C0.354262 8.81442 0.000198832 9.66893 0 10.56L0 11.6C0 11.9183 0.126428 12.2235 0.351472 12.4485C0.576515 12.6736 0.88174 12.8 1.2 12.8H10C10.3183 12.8 10.6235 12.6736 10.8485 12.4485C11.0736 12.2235 11.2 11.9183 11.2 11.6V10.56C11.1998 9.66893 10.8457 8.81442 10.2157 8.18434C9.58558 7.55426 8.73107 7.2002 7.84 7.2ZM5.6 6.4C6.2329 6.4 6.85159 6.21233 7.37782 5.8607C7.90406 5.50908 8.31421 5.00931 8.55641 4.42459C8.79862 3.83986 8.86199 3.19645 8.73851 2.57571C8.61504 1.95497 8.31027 1.38479 7.86274 0.93726C7.41521 0.489732 6.84503 0.184961 6.22429 0.0614885C5.60355 -0.0619842 4.96014 0.0013865 4.37541 0.243587C3.79069 0.485787 3.29092 0.895939 2.9393 1.42218C2.58768 1.94841 2.4 2.5671 2.4 3.2C2.4 4.04869 2.73714 4.86263 3.33726 5.46274C3.93737 6.06286 4.75131 6.4 5.6 6.4Z" fill="#798cb1"/>
</g>
<defs>
<clipPath id="clip0_181_478">
<rect width="16" height="12.8" fill="white"/>
</clipPath>
</defs>
</svg>
