<svg width="16" height="14" viewBox="0 0 16 14" fill="none" xmlns="http://www.w3.org/2000/svg">
<path d="M9.40759 5.34863C9.56932 5.33342 9.71717 5.44552 9.76013 5.5957L9.77966 5.66602L9.7738 5.66895C9.77413 5.67054 9.77444 5.67216 9.77478 5.67383C9.78301 5.71463 9.79438 5.77258 9.80603 5.84375C9.82932 5.98601 9.85454 6.18375 9.86169 6.41699C9.87595 6.88293 9.819 7.49602 9.52966 8.09863L9.52869 8.10059C9.20071 8.75563 8.56353 9.49284 8.32556 9.75293C8.33342 9.88468 8.34399 9.99261 8.35291 10.0693C8.35776 10.1111 8.3615 10.1441 8.36462 10.166C8.36619 10.177 8.36769 10.1859 8.36853 10.1914C8.36869 10.1925 8.3684 10.1935 8.36853 10.1943C8.41373 10.3839 8.27386 10.5627 8.09216 10.5859L8.07947 10.5879V10.5869H8.03162C7.88398 10.5869 7.72651 10.4852 7.69568 10.3223C7.69228 10.3124 7.68844 10.3035 7.68689 10.2969C7.68384 10.2838 7.68101 10.2674 7.6781 10.25C7.67227 10.2151 7.66659 10.1691 7.66052 10.1143C7.6487 10.0075 7.63648 9.86355 7.6283 9.69336C7.62185 9.67769 7.61171 9.65524 7.59607 9.62402C7.58118 9.59431 7.56406 9.55848 7.54822 9.52148C7.29649 9.2765 6.91339 8.8635 6.61267 8.3584C6.30719 7.84513 6.07948 7.22503 6.17224 6.58496C6.17827 6.44813 6.26679 6.34601 6.37927 6.30664L6.43103 6.29297C6.97654 6.15854 7.38945 6.30923 7.65369 6.47754C7.99815 5.98428 8.40521 5.7028 8.7406 5.54492C8.91724 5.4618 9.07371 5.41217 9.18982 5.38379C9.28679 5.3601 9.36001 5.35203 9.39392 5.34961V5.34863C9.3965 5.34828 9.39917 5.34892 9.40173 5.34863C9.40395 5.34854 9.40592 5.34766 9.40759 5.34766V5.34863ZM9.13806 6.12305C8.97847 6.18251 8.77781 6.2854 8.57263 6.45801C8.6856 6.39534 8.82684 6.40711 8.93787 6.48633C9.09939 6.60183 9.11772 6.81002 9.00916 6.96191V6.96289C8.62969 7.48172 8.44531 8.07551 8.35583 8.61035C8.56119 8.34449 8.76629 8.04431 8.90271 7.77148C9.20841 7.15958 9.19924 6.49432 9.13806 6.12305ZM8.47009 6.54785C8.30761 6.70383 8.14694 6.90739 8.00818 7.17383C7.91385 7.37104 7.86152 7.57596 7.84119 7.78027C7.97532 7.36675 8.1723 6.94501 8.46228 6.55762C8.46472 6.55421 8.46757 6.55113 8.47009 6.54785ZM6.82263 6.93555C6.82597 7.03676 6.83698 7.13829 6.85876 7.23926C6.88064 7.17812 6.92093 7.12166 6.98181 7.07812L6.9906 7.07227C7.06095 7.03213 7.14356 7.01566 7.22302 7.02539C7.12151 6.9744 6.98877 6.93555 6.82263 6.93555Z" fill="#798cb1" stroke="#798cb1" stroke-width="0.2"/>
<path d="M4.80029 4.42041C4.98355 4.42054 5.14014 4.57698 5.14014 4.76025V10.8403C5.13996 11.0235 4.98344 11.18 4.80029 11.1802C4.61704 11.1802 4.46063 11.0236 4.46045 10.8403V4.76025C4.46045 4.5769 4.61694 4.42041 4.80029 4.42041Z" fill="#798cb1" stroke="#798cb1" stroke-width="0.2"/>
<path d="M3.20032 4.42041C3.38357 4.42054 3.54016 4.57698 3.54016 4.76025V10.8403C3.53998 11.0235 3.38347 11.18 3.20032 11.1802C3.01707 11.1802 2.86065 11.0236 2.86047 10.8403V4.76025C2.86047 4.5769 3.01696 4.42041 3.20032 4.42041Z" fill="#798cb1" stroke="#798cb1" stroke-width="0.2"/>
<path d="M11.2003 4.42041C11.3836 4.42054 11.5402 4.57698 11.5402 4.76025V10.8403C11.54 11.0235 11.3835 11.18 11.2003 11.1802C11.0171 11.1802 10.8607 11.0236 10.8605 10.8403V4.76025C10.8605 4.5769 11.017 4.42041 11.2003 4.42041Z" fill="#798cb1" stroke="#798cb1" stroke-width="0.2"/>
<path d="M12.8003 4.42041C12.9835 4.42054 13.1401 4.57698 13.1401 4.76025V10.8403C13.14 11.0235 12.9834 11.18 12.8003 11.1802C12.617 11.1802 12.4606 11.0236 12.4604 10.8403V4.76025C12.4604 4.5769 12.6169 4.42041 12.8003 4.42041Z" fill="#798cb1" stroke="#798cb1" stroke-width="0.2"/>
<path d="M7.83618 0.46582C7.94323 0.401427 8.08406 0.395 8.18677 0.47168L13.5208 3.64844C13.6353 3.70062 13.716 3.83036 13.7161 3.95898V3.97168L13.7141 3.9707C13.7005 4.08271 13.6324 4.18712 13.5354 4.24707L13.5823 4.2998H2.63989C2.48447 4.29974 2.34211 4.18949 2.31763 4.04004L2.3186 4.03906C2.27903 3.8817 2.35227 3.74939 2.4729 3.66895L2.47681 3.66602L7.83618 0.466797V0.46582ZM3.86548 3.62012H12.1194L7.99927 1.14746L3.86548 3.62012Z" fill="#798cb1" stroke="#798cb1" stroke-width="0.2"/>
<path d="M13.36 11.3003C13.5433 11.3003 13.6998 11.4568 13.6998 11.6401C13.6997 11.8234 13.5433 11.98 13.36 11.98H2.64026C2.45698 11.98 2.30055 11.8234 2.30042 11.6401C2.30042 11.4568 2.45691 11.3003 2.64026 11.3003H13.36Z" fill="#798cb1" stroke="#798cb1" stroke-width="0.2"/>
<path d="M14.1597 12.1001C14.343 12.1001 14.5005 12.2566 14.5005 12.4399C14.5004 12.6232 14.3429 12.7798 14.1597 12.7798H1.84033C1.65706 12.7798 1.50062 12.6232 1.50049 12.4399C1.50049 12.2566 1.65698 12.1001 1.84033 12.1001H14.1597Z" fill="#798cb1" stroke="#798cb1" stroke-width="0.2"/>
<path d="M14.9602 12.9004C15.1435 12.9005 15.3 13.0569 15.3 13.2402C15.2999 13.4234 15.1434 13.58 14.9602 13.5801H1.04028C0.857008 13.5801 0.700573 13.4235 0.700439 13.2402C0.700439 13.0569 0.85693 12.9004 1.04028 12.9004H14.9602Z" fill="#798cb1" stroke="#798cb1" stroke-width="0.2"/>
</svg>
