<svg width="16" height="13" viewBox="0 0 16 13" fill="none" xmlns="http://www.w3.org/2000/svg">
<g clip-path="url(#clip0_181_249)">
<path opacity="0.4" d="M12 6.4001C12.4747 6.4001 12.9387 6.25934 13.3334 5.99563C13.728 5.73191 14.0356 5.35708 14.2173 4.91854C14.399 4.48 14.4465 3.99744 14.3539 3.53188C14.2613 3.06633 14.0327 2.63869 13.697 2.30304C13.3614 1.9674 12.9338 1.73882 12.4682 1.64621C12.0026 1.55361 11.5201 1.60114 11.0815 1.78279C10.643 1.96444 10.2682 2.27205 10.0044 2.66673C9.74073 3.06141 9.59997 3.52542 9.59997 4.0001C9.59997 4.63662 9.85283 5.24707 10.3029 5.69715C10.753 6.14724 11.3635 6.4001 12 6.4001ZM13.2 7.2001H13.105C12.7575 7.3201 12.39 7.4001 12 7.4001C11.61 7.4001 11.2425 7.3201 10.895 7.2001H10.8C10.29 7.2001 9.81997 7.3476 9.40747 7.5851C10.0175 8.2426 10.4 9.1151 10.4 10.0801V11.0401C10.4 11.0951 10.3875 11.1476 10.385 11.2001H14.8C15.1183 11.2001 15.4235 11.0737 15.6485 10.8486C15.8736 10.6236 16 10.3184 16 10.0001C16.0002 9.63234 15.9279 9.26815 15.7873 8.92835C15.6466 8.58855 15.4404 8.2798 15.1803 8.01976C14.9203 7.75972 14.6115 7.55348 14.2717 7.41283C13.9319 7.27219 13.5677 7.1999 13.2 7.2001Z" fill="#798cb1"/>
<g filter="url(#filter0_ddd_181_249)">
<path d="M4.8 6.39981C5.35379 6.39981 5.89514 6.23559 6.3556 5.92792C6.81605 5.62025 7.17494 5.18295 7.38686 4.67132C7.59879 4.15969 7.65424 3.5967 7.5462 3.05355C7.43816 2.51041 7.17149 2.01149 6.7799 1.61991C6.38831 1.22832 5.8894 0.961646 5.34625 0.853607C4.80311 0.745569 4.24012 0.801018 3.72849 1.01294C3.21685 1.22487 2.77955 1.58375 2.47189 2.04421C2.16422 2.50467 2 3.04602 2 3.59981C1.9998 3.96756 2.07209 4.33175 2.21274 4.67155C2.35338 5.01135 2.55962 5.3201 2.81966 5.58014C3.0797 5.84019 3.38845 6.04643 3.72825 6.18707C4.06805 6.32771 4.43224 6.4 4.8 6.39981ZM6.72 7.19981H6.5125C5.97911 7.46052 5.39369 7.59726 4.8 7.59981C4.185 7.59981 3.61 7.44981 3.0875 7.19981H2.88C2.11624 7.20001 1.38381 7.5035 0.843752 8.04356C0.30369 8.58362 0.000198819 9.31604 0 10.0798L0 10.7998C0 11.1181 0.126428 11.4233 0.351472 11.6483C0.576516 11.8734 0.88174 11.9998 1.2 11.9998H8.4C8.71826 11.9998 9.02348 11.8734 9.24853 11.6483C9.47357 11.4233 9.6 11.1181 9.6 10.7998V10.0798C9.5998 9.31604 9.29631 8.58362 8.75625 8.04356C8.21619 7.5035 7.48376 7.20001 6.72 7.19981V7.19981Z" fill="#798cb1"/>
<path d="M2.87988 7.7002H2.98242C3.53546 7.94823 4.14537 8.09958 4.7998 8.09961H4.80176C5.42975 8.09691 6.04932 7.95983 6.62012 7.7002H6.71973C7.35093 7.70036 7.95602 7.95114 8.40234 8.39746C8.84867 8.84379 9.09945 9.44888 9.09961 10.0801V10.7998C9.09961 10.9855 9.02581 11.1636 8.89453 11.2949C8.76338 11.4259 8.58576 11.4999 8.40039 11.5H1.2002C1.01459 11.5 0.836344 11.4261 0.705078 11.2949C0.573803 11.1636 0.5 10.9855 0.5 10.7998V10.0801L0.511719 9.84473C0.565927 9.3 0.806842 8.78797 1.19727 8.39746C1.64353 7.95119 2.24877 7.70043 2.87988 7.7002ZM3.91992 1.47461C4.34014 1.30059 4.80293 1.25502 5.24902 1.34375C5.69508 1.43253 6.10516 1.65203 6.42676 1.97363C6.74826 2.29525 6.96694 2.70535 7.05566 3.15137C7.14432 3.59732 7.09873 4.05939 6.9248 4.47949C6.75079 4.8996 6.45615 5.25901 6.07812 5.51172C5.69989 5.76445 5.2547 5.89941 4.7998 5.89941L4.57422 5.88867C4.34959 5.86665 4.12923 5.81122 3.91992 5.72461C3.64083 5.60909 3.38643 5.44014 3.17285 5.22656C2.9594 5.01306 2.79028 4.75942 2.6748 4.48047C2.55929 4.20138 2.49984 3.90166 2.5 3.59961L2.50586 3.42969C2.53514 3.03475 2.66664 2.65316 2.8877 2.32227C3.14042 1.94403 3.49965 1.64869 3.91992 1.47461Z" stroke="none"/>
</g>
</g>
<defs>
<filter id="filter0_ddd_181_249" x="-4" y="0.799805" width="17.6" height="19.2002" filterUnits="userSpaceOnUse" color-interpolation-filters="sRGB">
<feFlood flood-opacity="0" result="BackgroundImageFix"/>
<feColorMatrix in="SourceAlpha" type="matrix" values="0 0 0 0 0 0 0 0 0 0 0 0 0 0 0 0 0 0 127 0" result="hardAlpha"/>
<feOffset dy="4"/>
<feGaussianBlur stdDeviation="2"/>
<feComposite in2="hardAlpha" operator="out"/>
<feColorMatrix type="matrix" values="0 0 0 0 0 0 0 0 0 0 0 0 0 0 0 0 0 0 0.25 0"/>
<feBlend mode="normal" in2="BackgroundImageFix" result="effect1_dropShadow_181_249"/>
<feColorMatrix in="SourceAlpha" type="matrix" values="0 0 0 0 0 0 0 0 0 0 0 0 0 0 0 0 0 0 127 0" result="hardAlpha"/>
<feOffset dy="4"/>
<feGaussianBlur stdDeviation="2"/>
<feComposite in2="hardAlpha" operator="out"/>
<feColorMatrix type="matrix" values="0 0 0 0 0 0 0 0 0 0 0 0 0 0 0 0 0 0 0.25 0"/>
<feBlend mode="normal" in2="effect1_dropShadow_181_249" result="effect2_dropShadow_181_249"/>
<feColorMatrix in="SourceAlpha" type="matrix" values="0 0 0 0 0 0 0 0 0 0 0 0 0 0 0 0 0 0 127 0" result="hardAlpha"/>
<feOffset dy="4"/>
<feGaussianBlur stdDeviation="2"/>
<feComposite in2="hardAlpha" operator="out"/>
<feColorMatrix type="matrix" values="0 0 0 0 0 0 0 0 0 0 0 0 0 0 0 0 0 0 0.25 0"/>
<feBlend mode="normal" in2="effect2_dropShadow_181_249" result="effect3_dropShadow_181_249"/>
<feBlend mode="normal" in="SourceGraphic" in2="effect3_dropShadow_181_249" result="shape"/>
</filter>
<clipPath id="clip0_181_249">
<rect width="16" height="12.8" fill="white"/>
</clipPath>
</defs>
</svg>
